<mxfile host="app.diagrams.net" modified="2021-08-08T00:57:04.026Z" agent="5.0 (Windows NT 10.0; Win64; x64) AppleWebKit/537.36 (KHTML, like Gecko) Chrome/92.0.4515.131 Safari/537.36" etag="GcsKqrkkrNqi7RXPt2ec" version="14.9.5" type="github">
  <diagram id="Uj_WK7yueQJwK_zuruR_" name="Page-1">
    <mxGraphModel dx="3972" dy="1805" grid="1" gridSize="10" guides="1" tooltips="1" connect="1" arrows="1" fold="1" page="1" pageScale="1" pageWidth="850" pageHeight="1100" math="0" shadow="0">
      <root>
        <mxCell id="0" />
        <mxCell id="1" parent="0" />
        <mxCell id="735CQSmU2qTzjQAKYU-q-1" value="" style="image;html=1;image=img/lib/clip_art/computers/Workstation_128x128.png" vertex="1" parent="1">
          <mxGeometry x="-1950" y="520" width="80" height="80" as="geometry" />
        </mxCell>
        <mxCell id="735CQSmU2qTzjQAKYU-q-2" style="edgeStyle=orthogonalEdgeStyle;rounded=0;orthogonalLoop=1;jettySize=auto;html=1;" edge="1" parent="1" source="735CQSmU2qTzjQAKYU-q-3" target="735CQSmU2qTzjQAKYU-q-6">
          <mxGeometry relative="1" as="geometry">
            <Array as="points">
              <mxPoint x="-1770" y="-73" />
              <mxPoint x="-1770" y="-30" />
            </Array>
          </mxGeometry>
        </mxCell>
        <mxCell id="735CQSmU2qTzjQAKYU-q-3" value="Internet" style="outlineConnect=0;dashed=0;verticalLabelPosition=bottom;verticalAlign=top;align=center;html=1;shape=mxgraph.aws3.internet_3;fillColor=#D2D3D3;gradientColor=none;" vertex="1" parent="1">
          <mxGeometry x="-1960" y="-100" width="79.5" height="54" as="geometry" />
        </mxCell>
        <mxCell id="735CQSmU2qTzjQAKYU-q-4" value="SSH&lt;br&gt;HTTP" style="text;html=1;align=center;verticalAlign=middle;resizable=0;points=[];autosize=1;strokeColor=none;" vertex="1" parent="1">
          <mxGeometry x="-1925" y="230" width="50" height="30" as="geometry" />
        </mxCell>
        <mxCell id="735CQSmU2qTzjQAKYU-q-5" value="Azure Resource Group" style="swimlane;" vertex="1" parent="1">
          <mxGeometry x="-1760" y="-140" width="820" height="760" as="geometry" />
        </mxCell>
        <mxCell id="735CQSmU2qTzjQAKYU-q-6" value="" style="image;html=1;image=img/lib/clip_art/networking/Firewall_02_128x128.png" vertex="1" parent="735CQSmU2qTzjQAKYU-q-5">
          <mxGeometry x="10" y="90" width="80" height="80" as="geometry" />
        </mxCell>
        <mxCell id="735CQSmU2qTzjQAKYU-q-7" value="RedTeam1 VNet 10.0.0.0/16" style="swimlane;startSize=23;" vertex="1" parent="735CQSmU2qTzjQAKYU-q-5">
          <mxGeometry x="10" y="30" width="800" height="720" as="geometry" />
        </mxCell>
        <mxCell id="735CQSmU2qTzjQAKYU-q-8" style="edgeStyle=orthogonalEdgeStyle;rounded=0;orthogonalLoop=1;jettySize=auto;html=1;" edge="1" parent="735CQSmU2qTzjQAKYU-q-7" source="735CQSmU2qTzjQAKYU-q-11" target="735CQSmU2qTzjQAKYU-q-16">
          <mxGeometry relative="1" as="geometry">
            <Array as="points">
              <mxPoint x="322" y="321" />
              <mxPoint x="322" y="370" />
            </Array>
          </mxGeometry>
        </mxCell>
        <mxCell id="735CQSmU2qTzjQAKYU-q-9" value="SSH" style="edgeLabel;html=1;align=center;verticalAlign=middle;resizable=0;points=[];" vertex="1" connectable="0" parent="735CQSmU2qTzjQAKYU-q-8">
          <mxGeometry x="0.4858" relative="1" as="geometry">
            <mxPoint x="1" as="offset" />
          </mxGeometry>
        </mxCell>
        <mxCell id="735CQSmU2qTzjQAKYU-q-10" style="edgeStyle=orthogonalEdgeStyle;rounded=0;orthogonalLoop=1;jettySize=auto;html=1;entryX=0.229;entryY=0;entryDx=0;entryDy=0;entryPerimeter=0;startArrow=none;" edge="1" parent="735CQSmU2qTzjQAKYU-q-7" source="735CQSmU2qTzjQAKYU-q-18" target="735CQSmU2qTzjQAKYU-q-17">
          <mxGeometry relative="1" as="geometry" />
        </mxCell>
        <mxCell id="735CQSmU2qTzjQAKYU-q-11" value="JumpBoxProvisioner&lt;br&gt;Ansible&lt;br&gt;azureuser@51.143.16.75&lt;br&gt;docker container name&lt;br&gt;nice_jennings" style="verticalLabelPosition=bottom;aspect=fixed;html=1;verticalAlign=top;strokeColor=none;align=center;outlineConnect=0;shape=mxgraph.citrix.desktop;" vertex="1" parent="735CQSmU2qTzjQAKYU-q-7">
          <mxGeometry x="117.5" y="272" width="89" height="98" as="geometry" />
        </mxCell>
        <mxCell id="735CQSmU2qTzjQAKYU-q-12" value="RedTeam1_Vsubnet 10.0.0.0/24" style="swimlane;startSize=23;" vertex="1" parent="735CQSmU2qTzjQAKYU-q-7">
          <mxGeometry y="20" width="780" height="660" as="geometry" />
        </mxCell>
        <mxCell id="735CQSmU2qTzjQAKYU-q-13" value="RedTeam&amp;nbsp;&lt;br&gt;Security Group" style="text;html=1;align=center;verticalAlign=middle;resizable=0;points=[];autosize=1;strokeColor=none;" vertex="1" parent="735CQSmU2qTzjQAKYU-q-12">
          <mxGeometry x="-20" y="118" width="100" height="30" as="geometry" />
        </mxCell>
        <mxCell id="735CQSmU2qTzjQAKYU-q-14" value="SSH" style="text;html=1;align=center;verticalAlign=middle;resizable=0;points=[];autosize=1;strokeColor=none;" vertex="1" parent="735CQSmU2qTzjQAKYU-q-12">
          <mxGeometry x="140" y="80" width="40" height="20" as="geometry" />
        </mxCell>
        <mxCell id="735CQSmU2qTzjQAKYU-q-15" value="redteamloadbalancer&lt;br&gt;@20.83.250.228" style="verticalLabelPosition=bottom;html=1;verticalAlign=top;align=center;strokeColor=none;fillColor=#00BEF2;shape=mxgraph.azure.azure_load_balancer;" vertex="1" parent="735CQSmU2qTzjQAKYU-q-12">
          <mxGeometry x="365" y="55" width="50" height="35" as="geometry" />
        </mxCell>
        <mxCell id="735CQSmU2qTzjQAKYU-q-16" value="Web-1&lt;br&gt;webuser-1@10.0.0.5&lt;br&gt;DVWA" style="verticalLabelPosition=bottom;html=1;verticalAlign=top;align=center;strokeColor=none;fillColor=#00BEF2;shape=mxgraph.azure.virtual_machine;" vertex="1" parent="735CQSmU2qTzjQAKYU-q-12">
          <mxGeometry x="430" y="310" width="70" height="80" as="geometry" />
        </mxCell>
        <mxCell id="735CQSmU2qTzjQAKYU-q-17" value="web-2&lt;br&gt;webuser-2@10.0.0.6&lt;br&gt;DVWA" style="verticalLabelPosition=bottom;html=1;verticalAlign=top;align=center;strokeColor=none;fillColor=#00BEF2;shape=mxgraph.azure.virtual_machine;" vertex="1" parent="735CQSmU2qTzjQAKYU-q-12">
          <mxGeometry x="620" y="310" width="70" height="80" as="geometry" />
        </mxCell>
        <mxCell id="735CQSmU2qTzjQAKYU-q-18" value="SSH" style="text;html=1;align=center;verticalAlign=middle;resizable=0;points=[];autosize=1;strokeColor=none;" vertex="1" parent="735CQSmU2qTzjQAKYU-q-7">
          <mxGeometry x="350" y="310" width="40" height="20" as="geometry" />
        </mxCell>
        <mxCell id="735CQSmU2qTzjQAKYU-q-19" value="" style="edgeStyle=orthogonalEdgeStyle;rounded=0;orthogonalLoop=1;jettySize=auto;html=1;entryX=0.229;entryY=0;entryDx=0;entryDy=0;entryPerimeter=0;endArrow=none;" edge="1" parent="735CQSmU2qTzjQAKYU-q-7" source="735CQSmU2qTzjQAKYU-q-11" target="735CQSmU2qTzjQAKYU-q-18">
          <mxGeometry relative="1" as="geometry">
            <mxPoint x="-1535.5" y="211" as="sourcePoint" />
            <mxPoint x="-1113.9699999999998" y="220" as="targetPoint" />
          </mxGeometry>
        </mxCell>
        <mxCell id="735CQSmU2qTzjQAKYU-q-20" style="edgeStyle=orthogonalEdgeStyle;rounded=0;orthogonalLoop=1;jettySize=auto;html=1;" edge="1" parent="1" source="735CQSmU2qTzjQAKYU-q-21">
          <mxGeometry relative="1" as="geometry">
            <mxPoint x="-1900" y="-46" as="targetPoint" />
          </mxGeometry>
        </mxCell>
        <mxCell id="735CQSmU2qTzjQAKYU-q-21" value="@172.90.42.45 &lt;br&gt;workstation/desktop" style="text;html=1;align=center;verticalAlign=middle;resizable=0;points=[];autosize=1;strokeColor=none;" vertex="1" parent="1">
          <mxGeometry x="-1960" y="490" width="120" height="30" as="geometry" />
        </mxCell>
        <mxCell id="735CQSmU2qTzjQAKYU-q-22" style="edgeStyle=orthogonalEdgeStyle;rounded=0;orthogonalLoop=1;jettySize=auto;html=1;" edge="1" parent="1" source="735CQSmU2qTzjQAKYU-q-25">
          <mxGeometry relative="1" as="geometry">
            <mxPoint x="-1830" y="-69" as="targetPoint" />
            <Array as="points">
              <mxPoint x="-760" y="570" />
              <mxPoint x="-1830" y="570" />
            </Array>
          </mxGeometry>
        </mxCell>
        <mxCell id="735CQSmU2qTzjQAKYU-q-23" value="&lt;font style=&quot;font-size: 15px&quot;&gt;Port 5601&lt;/font&gt;" style="edgeLabel;html=1;align=center;verticalAlign=middle;resizable=0;points=[];" vertex="1" connectable="0" parent="735CQSmU2qTzjQAKYU-q-22">
          <mxGeometry x="-0.2319" y="-3" relative="1" as="geometry">
            <mxPoint as="offset" />
          </mxGeometry>
        </mxCell>
        <mxCell id="735CQSmU2qTzjQAKYU-q-24" style="edgeStyle=orthogonalEdgeStyle;rounded=0;orthogonalLoop=1;jettySize=auto;html=1;" edge="1" parent="1" source="735CQSmU2qTzjQAKYU-q-25">
          <mxGeometry relative="1" as="geometry">
            <mxPoint x="-760" y="70" as="targetPoint" />
          </mxGeometry>
        </mxCell>
        <mxCell id="735CQSmU2qTzjQAKYU-q-25" value="ELK Security Group" style="image;html=1;image=img/lib/clip_art/networking/Firewall_02_128x128.png" vertex="1" parent="1">
          <mxGeometry x="-800" y="465" width="80" height="80" as="geometry" />
        </mxCell>
        <mxCell id="735CQSmU2qTzjQAKYU-q-26" value="Elk&lt;br&gt;webuser1@10.1.0.4&lt;br&gt;ports 5601, 9200,5044" style="verticalLabelPosition=bottom;aspect=fixed;html=1;verticalAlign=top;strokeColor=none;align=center;outlineConnect=0;shape=mxgraph.citrix.desktop;" vertex="1" parent="1">
          <mxGeometry x="-804.5" y="-70" width="89" height="98" as="geometry" />
        </mxCell>
        <mxCell id="735CQSmU2qTzjQAKYU-q-27" value="&lt;font style=&quot;font-size: 20px&quot;&gt;Project1vnet 10.1.0.0/16&lt;/font&gt;" style="text;html=1;align=center;verticalAlign=middle;resizable=0;points=[];autosize=1;strokeColor=none;" vertex="1" parent="1">
          <mxGeometry x="-880" y="-110" width="230" height="20" as="geometry" />
        </mxCell>
        <mxCell id="735CQSmU2qTzjQAKYU-q-28" style="edgeStyle=orthogonalEdgeStyle;rounded=0;orthogonalLoop=1;jettySize=auto;html=1;" edge="1" parent="1" source="735CQSmU2qTzjQAKYU-q-6">
          <mxGeometry relative="1" as="geometry">
            <mxPoint x="-1580" y="160" as="targetPoint" />
          </mxGeometry>
        </mxCell>
        <mxCell id="735CQSmU2qTzjQAKYU-q-29" style="edgeStyle=orthogonalEdgeStyle;rounded=0;orthogonalLoop=1;jettySize=auto;html=1;" edge="1" parent="1" source="735CQSmU2qTzjQAKYU-q-6">
          <mxGeometry relative="1" as="geometry">
            <mxPoint x="-1400" y="-10" as="targetPoint" />
          </mxGeometry>
        </mxCell>
        <mxCell id="735CQSmU2qTzjQAKYU-q-30" value="HTTP port 80" style="text;html=1;align=center;verticalAlign=middle;resizable=0;points=[];autosize=1;strokeColor=none;" vertex="1" parent="1">
          <mxGeometry x="-1515" y="-10" width="90" height="20" as="geometry" />
        </mxCell>
        <mxCell id="735CQSmU2qTzjQAKYU-q-31" style="edgeStyle=orthogonalEdgeStyle;rounded=0;orthogonalLoop=1;jettySize=auto;html=1;" edge="1" parent="1" source="735CQSmU2qTzjQAKYU-q-15">
          <mxGeometry relative="1" as="geometry">
            <mxPoint x="-1100" y="220" as="targetPoint" />
            <Array as="points">
              <mxPoint x="-1100" y="-17" />
              <mxPoint x="-1100" y="220" />
            </Array>
          </mxGeometry>
        </mxCell>
        <mxCell id="735CQSmU2qTzjQAKYU-q-32" style="edgeStyle=orthogonalEdgeStyle;rounded=0;orthogonalLoop=1;jettySize=auto;html=1;" edge="1" parent="1" source="735CQSmU2qTzjQAKYU-q-15">
          <mxGeometry relative="1" as="geometry">
            <mxPoint x="-1280" y="220" as="targetPoint" />
            <Array as="points">
              <mxPoint x="-1280" y="-17" />
              <mxPoint x="-1280" y="220" />
            </Array>
          </mxGeometry>
        </mxCell>
        <mxCell id="735CQSmU2qTzjQAKYU-q-33" style="edgeStyle=orthogonalEdgeStyle;rounded=0;orthogonalLoop=1;jettySize=auto;html=1;entryX=0;entryY=0.5;entryDx=0;entryDy=0;" edge="1" parent="1" source="735CQSmU2qTzjQAKYU-q-11" target="735CQSmU2qTzjQAKYU-q-25">
          <mxGeometry relative="1" as="geometry">
            <mxPoint x="-1510" y="510" as="targetPoint" />
            <Array as="points">
              <mxPoint x="-1510" y="211" />
              <mxPoint x="-1510" y="505" />
            </Array>
          </mxGeometry>
        </mxCell>
        <mxCell id="735CQSmU2qTzjQAKYU-q-34" value="PORT 5601" style="edgeLabel;html=1;align=center;verticalAlign=middle;resizable=0;points=[];" vertex="1" connectable="0" parent="735CQSmU2qTzjQAKYU-q-33">
          <mxGeometry x="0.1672" relative="1" as="geometry">
            <mxPoint x="1" as="offset" />
          </mxGeometry>
        </mxCell>
        <mxCell id="735CQSmU2qTzjQAKYU-q-35" style="edgeStyle=orthogonalEdgeStyle;rounded=0;orthogonalLoop=1;jettySize=auto;html=1;entryX=0.125;entryY=0.063;entryDx=0;entryDy=0;entryPerimeter=0;" edge="1" parent="1" source="735CQSmU2qTzjQAKYU-q-17" target="735CQSmU2qTzjQAKYU-q-25">
          <mxGeometry relative="1" as="geometry" />
        </mxCell>
        <mxCell id="735CQSmU2qTzjQAKYU-q-36" value="PORT 9200" style="edgeLabel;html=1;align=center;verticalAlign=middle;resizable=0;points=[];" vertex="1" connectable="0" parent="735CQSmU2qTzjQAKYU-q-35">
          <mxGeometry x="-0.3001" relative="1" as="geometry">
            <mxPoint as="offset" />
          </mxGeometry>
        </mxCell>
        <mxCell id="735CQSmU2qTzjQAKYU-q-37" style="edgeStyle=orthogonalEdgeStyle;rounded=0;orthogonalLoop=1;jettySize=auto;html=1;entryX=0.25;entryY=0;entryDx=0;entryDy=0;" edge="1" parent="1" source="735CQSmU2qTzjQAKYU-q-16" target="735CQSmU2qTzjQAKYU-q-25">
          <mxGeometry relative="1" as="geometry" />
        </mxCell>
      </root>
    </mxGraphModel>
  </diagram>
</mxfile>
